<svg width="160" height="111" viewBox="0 0 160 111" fill="none" xmlns="http://www.w3.org/2000/svg">
<rect width="160" height="111" fill="#ffffff"/>
<g transform="translate(10, 10)">
<path d="M8.72692 65.3305C7.62548 65.7261 6.86007 66.8943 6.86007 68.4719V85.3519C6.86007 87.8494 7.32678 88.9946 9.80503 88.9946C13.4361 88.9946 17.9305 87.2561 19.83 83.5903C19.1673 86.419 18.2665 90.0847 18.2665 90.0847H1.57221C2.62231 89.5512 3.37839 88.6681 3.37839 86.9525V68.4857C3.37839 66.4344 2.21627 65.6433 1.56287 65.3305H8.72692ZM67.2621 65.3305H61.5402C62.1833 65.5767 62.7369 66.0071 63.1295 66.5662C63.5221 67.1253 63.7358 67.7874 63.7431 68.4673V83.6087L50.2878 65.3351H45.1306C46.0006 65.7348 46.7631 66.3303 47.3568 67.0737V86.9617C47.3516 87.6397 47.1396 88.3004 46.7484 88.8582C46.3573 89.4159 45.805 89.8449 45.1632 90.0893H50.8618C50.2183 89.8436 49.6644 89.4134 49.2717 88.8542C48.879 88.295 48.6655 87.6325 48.6589 86.9525V68.7939L65.0732 91V68.4627C65.0741 67.7857 65.2809 67.1245 65.6669 66.5646C66.0529 66.0046 66.6004 65.5715 67.2388 65.3213L67.2621 65.3305ZM120.687 37.7338C121.34 38.0466 122.507 38.8331 122.507 40.8845V59.3282C122.507 61.0484 121.751 61.9269 120.701 62.4604H137.395C137.395 62.4604 138.296 58.7809 138.959 55.966C137.059 59.6456 132.565 61.3704 128.934 61.3704C126.474 61.3704 125.989 60.2251 125.989 57.7322V40.8523C125.989 39.2701 126.731 38.0926 127.832 37.7154L120.687 37.7338ZM117.55 59.1442C118.409 61.2876 119.702 62.1431 120.589 62.488H112.977C114.157 61.9867 114.643 61.0346 114.111 59.5904C113.709 58.5049 111.838 53.7353 111.838 53.7353H103.904C103.904 53.7353 101.939 58.7947 101.636 59.5904C101.094 61.007 101.902 62.2167 102.76 62.488H97.4865C98.5272 61.9453 99.582 61.4532 100.492 59.1535C101.426 56.7709 106.032 44.7802 109.033 36.9381C113.933 49.7062 116.351 56.1822 117.536 59.1442M111.404 52.5762L107.894 43.3774L104.361 52.5762H111.404ZM98.1959 37.7154C99.1293 37.9868 100.105 39.3758 99.0406 41.1006L93.7528 49.6648C93.7528 49.6648 89.5103 42.0297 88.8429 40.7695C88.5911 40.2362 88.547 39.6304 88.7192 39.0672C88.8913 38.504 89.2676 38.0229 89.7764 37.7154H81.7629C83.6298 38.5617 84.8012 40.2727 85.4686 41.4778C86.5514 43.4234 91.0692 51.5966 91.0692 51.5966V59.342C91.0692 60.8874 90.4204 61.8809 89.2723 62.465H96.3337C95.1809 61.9085 94.5508 60.8736 94.5508 59.3236V50.6813C94.5508 50.6813 99.7594 42.2091 100.749 40.6269C101.216 39.8542 102.476 38.3272 103.764 37.7154H98.1959ZM63.8458 50.1339C63.8458 42.2735 67.2014 38.4697 72.3773 38.4697C77.5531 38.4697 80.9508 42.2735 80.9508 50.1339C80.9508 57.9944 77.5671 61.8303 72.3866 61.8303C67.2061 61.8303 63.8458 57.9898 63.8458 50.1339ZM84.8992 50.1339C84.8992 41.8181 78.7246 37.2785 72.3773 37.2785C66.03 37.2785 59.86 41.7905 59.86 50.1339C59.86 58.4773 65.9787 63.0124 72.3773 63.0124C78.7759 63.0124 84.8992 58.4129 84.8992 50.1339ZM23.6617 77.6938C23.6617 69.8334 27.0174 66.0296 32.1933 66.0296C37.3691 66.0296 40.7668 69.8334 40.7668 77.6938C40.7668 85.5543 37.3831 89.3902 32.2026 89.3902C27.0221 89.3902 23.6617 85.5497 23.6617 77.6938ZM44.7152 77.6938C44.7152 69.378 38.5406 64.8384 32.1933 64.8384C25.846 64.8384 19.6713 69.3504 19.6713 77.6938C19.6713 86.0372 25.7946 90.5447 32.1933 90.5447C38.5919 90.5447 44.7152 85.9682 44.7152 77.6938ZM95.657 77.6938C95.657 69.8334 99.0126 66.0296 104.188 66.0296C109.364 66.0296 112.762 69.8334 112.762 77.6938C112.762 85.5543 109.378 89.3902 104.198 89.3902C99.0173 89.3902 95.657 85.5497 95.657 77.6938ZM116.71 77.6938C116.71 69.378 110.536 64.8384 104.188 64.8384C97.8412 64.8384 91.6712 69.3504 91.6712 77.6938C91.6712 86.0372 97.7898 90.5447 104.188 90.5447C110.587 90.5447 116.71 85.9682 116.71 77.6938ZM39.81 37.7154C40.9488 38.203 41.6022 39.3115 41.6022 40.8431V59.3328C41.6022 60.8368 40.9862 61.8855 39.796 62.465H46.8574C45.672 61.9085 45.0652 60.8966 45.0652 59.3236V50.6261C45.3027 50.6028 45.5419 50.6028 45.7793 50.6261C47.0488 50.6261 48.3882 50.5525 49.9797 52.6912C51.9399 55.3359 55.2069 59.7606 57.2138 62.4697H62.8657C61.1948 62.1385 59.9907 60.3999 58.8939 59.0017C53.9094 52.6728 53.8581 50.5157 48.5282 50.2857C61.4842 50.3409 60.3828 37.7246 48.9529 37.7246L39.81 37.7154ZM45.0652 38.9665C45.9957 38.8756 46.9305 38.8342 47.8655 38.8423C52.0006 38.8423 53.9048 40.6131 53.9048 44.1409C53.9048 47.9952 51.7112 49.5406 47.2728 49.5406H45.0746L45.0652 38.9665ZM139.5 65.3213H133.806C134.449 65.5675 135.003 65.9979 135.395 66.557C135.788 67.1161 136.002 67.7782 136.009 68.4581V83.5995L122.554 65.3259H117.373C118.243 65.7256 119.006 66.3211 119.599 67.0645V86.9525C119.594 87.6305 119.382 88.2913 118.991 88.849C118.6 89.4067 118.048 89.8357 117.406 90.0801H123.104C122.461 89.8344 121.907 89.4042 121.514 88.845C121.122 88.2858 120.908 87.6233 120.901 86.9433V68.7939L137.316 91V68.4627C137.318 67.7836 137.528 67.1209 137.917 66.5606C138.307 66.0004 138.858 65.5686 139.5 65.3213ZM76.5264 65.3213H67.9062C68.8069 65.6755 69.7264 66.7701 69.7264 68.4121V86.8973C69.7623 87.544 69.6084 88.1873 69.2831 88.7501C68.9578 89.3129 68.4749 89.7714 67.8922 90.0709H77.1798C85.1512 90.0709 89.697 85.5543 89.697 77.8778C89.697 73.8395 87.8302 65.3213 76.5264 65.3213ZM77.5485 88.9854C73.8148 88.9854 73.1894 87.4446 73.1894 83.6639V66.5172C74.5335 66.4436 75.4996 66.4068 76.209 66.4068C82.743 66.4068 85.7486 70.1323 85.7486 78.7977C85.7486 85.775 82.9483 88.9854 77.5485 88.9854ZM31.2132 62.4559C29.519 62.1753 28.8796 62.8698 26.336 62.6214C24.7471 62.495 23.1504 62.495 21.5615 62.6214C21.9349 61.559 23.5964 61.8533 24.0211 61.2416C24.6652 60.3217 23.5544 58.7533 22.8683 56.7295C22.593 55.8924 22.7843 54.2734 24.1985 54.1355C24.1098 55.3543 24.7539 58.8131 26.0233 60.1147C26.5647 60.6759 27.1668 61.1634 29.1503 61.2278C30.0277 61.26 30.8025 61.5084 31.2132 62.4559ZM41.3642 32.7066C41.3869 32.3578 41.3361 32.008 41.2148 31.6795C41.0935 31.351 40.9044 31.0508 40.6595 30.7979C39.5487 29.763 36.9537 27.1183 34.7135 24.6852C39.53 32.7066 30.9425 45.2079 27.5075 49.3014C27.0641 49.8258 27.8528 48.3172 27.2881 47.0615C26.4807 51.6104 22.5696 52.8292 21.9536 54.1447C21.2022 51.9599 15.0789 53.8733 9.22164 54.8622C13.0067 52.4475 21.1135 46.8729 24.1565 41.7262C19.382 47.1121 12.5213 51.7483 8.75492 54.0941C7.52575 54.8431 6.12763 55.2808 4.68518 55.3681C2.93968 55.4325 0.694786 55.1105 -0.5 54.1033C6.57537 52.7234 7.84017 44.61 10.7011 40.1577C11.8381 38.3291 13.156 36.6159 14.6355 35.0432C10.2204 41.2754 8.26021 50.6123 8.26021 50.6123C8.26021 50.6123 14.1595 38.5341 20.5208 34.5142C23.4517 32.6745 28.0629 31.4004 27.4048 36.2344C30.1397 31.5338 26.8867 28.6683 22.0703 29.579C22.9103 29.1191 23.8251 28.6591 24.8379 28.0842C26.3407 27.2471 28.9169 25.5867 28.3382 22.9144C27.6148 19.5568 24.0865 15.1414 22.985 11.6274C22.2616 9.29547 21.3562 4.81562 25.4913 2.88845C25.2719 2.37331 23.9884 1.50862 23.9418 0C24.8985 0.919889 26.0887 1.15906 27.9182 1.688C31.8992 2.83786 33.1967 4.31888 33.8874 6.21845C34.2281 7.16593 34.3542 8.85393 34.7089 10.8823C37.1964 17.6757 41.5182 28.9811 42.0316 30.6047C42.4423 31.9155 41.8636 32.3847 41.3642 32.7066ZM31.2878 9.49785C31.3873 9.67335 31.5293 9.82189 31.7011 9.93022C31.8729 10.0386 32.0692 10.1033 32.2726 10.1188C32.3961 9.97098 32.4801 9.79503 32.5167 9.60701C32.5534 9.41899 32.5417 9.22491 32.4826 9.04251C32.4532 8.96482 32.4083 8.89372 32.3506 8.83341C32.2928 8.7731 32.2234 8.7248 32.1464 8.69136C32.0694 8.65792 31.9864 8.64002 31.9023 8.63871C31.8181 8.63741 31.7346 8.65272 31.6565 8.68375C31.4989 8.74446 31.3718 8.86391 31.3028 9.01627C31.2337 9.16863 31.2284 9.34163 31.2878 9.49785ZM41.1822 30.039C40.3608 27.5047 34.2468 12.8141 33.6821 11.6412C33.4161 11.0847 32.2819 11.3008 32.7207 12.3173C33.1594 13.3338 38.0785 24.3449 39.1053 26.9297C37.1218 24.2897 32.8327 14.8194 31.5445 12.8784C31.4045 12.6485 30.2564 10.9421 28.7443 12.0137C26.5647 11.2962 25.8646 9.38287 26.1353 7.53389C24.7352 11.3008 27.1948 12.4507 28.4689 12.7911C28.2682 16.7374 39.3807 28.3188 41.1822 30.039Z" fill="#470054"/>
</g>
</svg>
