<?xml version="1.0" encoding="UTF-8"?>
<svg id="Layer_2" data-name="Layer 2" xmlns="http://www.w3.org/2000/svg" viewBox="0 0 170.08 32.95">
  <defs>
    <style>
      .cls-1 {
        fill: #40b496;
      }

      .cls-1, .cls-2, .cls-3 {
        stroke-width: 0px;
      }

      .cls-2 {
        fill: #373a36;
      }

      .cls-3 {
        fill: #23356e;
      }
    </style>
  </defs>
  <g id="Layer_1-2" data-name="Layer 1">
    <g>
      <path class="cls-3" d="M39.18,24.87c.19,1.16.94,2.17,2.11,2.17,1.77,0,2.15-1.37,2.15-2v-4.91c-.94-.41-1.67-.93-2.41-1.55-3.02,1.38-7.17,4.39-7.21,7.46-.06,4,3.06,5.79,5.4,6.28,2,.42,6.14.52,8.19.52h.7v.1h-17.48s-4.11-3.18-3.23-6.35c.26.7,1.56,3.83,3.66,4.79h3.19c-1.03-1.22-2.21-3.14-1.99-5.46.42-4.45,5-7.08,7.64-8.51-.94-1.03-1.76-2.88-1.82-3.05-.25-.8,1.1-2.68,1.1-2.68.15,3.19,1.85,6.21,4.27,7.67v-10.04c0-3.36-1.39-5.49-3.73-6.1-.86-.22-.02-.02-10.1-2.39-5.04-.91-5.56,4.2-5.56,5.97v12.99c11.01-4.72,11.3-11.53,11.4-11.92.53,3.69-1.07,6.54-3.3,8.68,1.14,0,3.4.04,5.43.86-2.78-.07-5.43.09-8.16,1.54-1.21.65-4.04,2.15-3.7,6.38.29,3.56,2.54,7.62,2.54,7.62h-6.8c-2.08-1.35-3.63-2.8-4.77-4.28.39,2.8,2.9,4.28,2.9,4.28h-6.02c-2.06-1.99-2.08-4.16-1.74-5.78.56,1.86.92,2.97,2.06,4.19h2.06c-.42-.72-.81-1.7-.87-2.9-.03-.62.02-1.3.21-2.03,0,0,0-.01-.01-.02-1.8-3.58-1.58-7.19-.82-10.04l.23.06s0,.09,0,.14c0,11.68,7.14,14.71,7.26,14.79h3.83c-.64-1.54-1.65-4.37-1.65-7.12,0-.88.16-2.43.5-3.18,0,0-2.12.71-2.12.71v-13.55c-.06.01-11.66,2.6-13.76,3.08-1.61.37-2.98,1.79-4.01,4.51-2.51,6.92.73,14.97.96,15.55h3.57c-.08-1.52.16-4.77,2.56-9.81l.18.09c-2.06,9.02-.83,11.31-.83,11.31H.03v-.1s2.38-.35,4.11-1.49c-2.94-8.43-.81-13.84-.48-14.97C.12,18.83.12,22.23.58,24.25c-.27,0-.17,0-.17,0-.67-1.84-.44-4.23.06-5.51.78-1.98,2.1-3.48,4.08-4.53,1.22-2.34,2.71-3.44,4.05-3.75,3.76-.85,12.16-2.67,12.16-2.67l1.71-.38v-.63C22.48-.77,28.63-.28,30.99.29c2.08.5,5.12,1.23,8.33,1.97,2.45.57,5.63,2.45,5.63,6.96v10.91c1.27.52,2.27.62,2.38.63s.77.05.77.05v.13s-1.62.16-3.15-.28v4.38c0,2.22-1.61,3.61-3.59,3.61s-3.59-1.62-3.59-3.62c0-2.46,2.19-3.54,3.68-3.54,0,0,0,.18,0,.18-1.16,0-2.62,1.05-2.27,3.23h0Z"/>
      <path class="cls-2" d="M77.28,17.04s0-.01-.01-.02h0s0,0,.01.02Z"/>
      <g>
        <path class="cls-3" d="M133.68,7.42l4.05-.77v9.22c0,.63.46.94,1.41.94v.11s-5.48,0-5.48,0v-.11c.95,0,1.41-.31,1.41-.94v-7.38c0-.67-.36-.97-1.39-.97v-.1Z"/>
        <circle class="cls-3" cx="136.07" cy="4.2" r="1.6"/>
      </g>
      <path class="cls-3" d="M76.23,11.13c.08-.29.14-.65.12-1.02-.25-3.54-3.86-3.45-4.17-3.45s-4.97-.05-5.13,5.12c0,4.27,3.66,5.15,5.01,5.15.72,0,1.46-.16,2.22-.45s1.36-.75,1.81-1.34l-.02-.1c-.92.8-1.91,1.2-3,1.2-.99,0-1.79-.39-2.42-1.2-.62-.81-.94-1.93-.94-3.32,0-.2,0-.4,0-.59h6.5ZM71.76,6.81c.27-.05.78,0,.78,0,1.07.14,1.72,1.04,1.72,2.3,0,.77-.2,1.28-.6,1.53-.4.23-1.24.35-2.54.37-.03,0-1.11,0-1.38,0,.09-2.93.79-4.06,2.03-4.2Z"/>
      <path class="cls-3" d="M163.88,10.63c-.4.23-1.24.35-2.54.37-.04,0-1.41,0-1.44,0v.12h1.44s5.12,0,5.12,0c.08-.29.14-.65.12-1.02-.25-3.53-3.86-3.45-4.17-3.45s-4.97-.05-5.12,5.11c0,5.84,6.79,5.59,8.58,4.63,1.23-.66,3.33-1.93,4.22-5.31l-.1-.04s-1.08,2.42-2.91,3.7c-1.21.84-2.2,1.08-3.29,1.08-.99,0-2.12-.28-2.74-1.08-.62-.8-1.09-1.65-1.09-3.04,0-3.45.7-4.75,2.04-4.9.27-.05.78,0,.78,0,1.07.14,1.71,1.04,1.71,2.3,0,.76-.19,1.28-.6,1.53Z"/>
      <path class="cls-3" d="M155.56,15.87V1.71l-4.03.75v.1c1.02,0,1.38.3,1.38.97v12.34c0,.63-.46.93-1.4.93v.12h5.45v-.12c-.94,0-1.4-.3-1.4-.93Z"/>
      <path class="cls-3" d="M128.07,10.46c-1.25-.57-2.28-1.29-2.28-2.16,0-2.15,4.23-1.82,4.23-.22,0,.47-.31.84-.86.86.21.53.66.8,1.36.8.8,0,1.29-.51,1.29-1.14,0-2.39-7.97-3.12-7.97.8,0,1.73,2.36,2.77,4.15,3.61,1.25.61,2.26,1.33,2.26,2.12,0,2.28-4.79,2.07-4.79.16,0-.53.41-.9,1.01-.9-.25-.49-.72-.75-1.4-.75-.8,0-1.46.53-1.46,1.31,0,2.24,8.59,3.27,8.59-.96,0-1.77-2.3-2.75-4.13-3.55Z"/>
      <path class="cls-3" d="M82.46,10.46c-1.25-.57-2.28-1.29-2.28-2.16,0-2.15,4.23-1.82,4.23-.22,0,.47-.31.84-.86.86.21.53.66.8,1.36.8.8,0,1.29-.51,1.29-1.14,0-2.39-7.97-3.12-7.97.8,0,1.73,2.36,2.77,4.15,3.61,1.25.61,2.26,1.33,2.26,2.12,0,2.28-4.79,2.07-4.79.16,0-.53.41-.9,1.01-.9-.25-.49-.72-.75-1.4-.75-.8,0-1.46.53-1.46,1.31,0,2.24,8.59,3.27,8.59-.96,0-1.77-2.3-2.75-4.13-3.55Z"/>
      <path class="cls-3" d="M121.95,15.88v-6.18c0-2.09-1.22-3.04-3.14-3.04-1.34,0-2.95.62-4.04,2.4v-2.4s-4.02.77-4.02.77v.1c1.02,0,1.38.3,1.38.97v7.39c0,.62-.46.95-1.4.95v.1h5.44v-.1c-.94,0-1.4-.32-1.4-.95v-6.62c.25-.39,1.06-1.68,2.62-1.68,1.28,0,1.92.7,1.92,2.14v6.16c0,.62-.46.93-1.38.93v.11h5.42v-.11c-.94,0-1.4-.31-1.4-.93Z"/>
      <path class="cls-3" d="M105.13,6.65s-5.2-.17-5.2,5.09c0,3.45,2.6,5.18,5.13,5.18s5.26-1.64,5.26-5.18c0-4.15-3.45-5.09-5.2-5.09ZM102.6,11.74c0-2.89.42-4.97,2.53-4.97,1.73,0,2.53,1.35,2.53,4.97,0,4.35-1.25,5.03-2.6,5.03-2.15,0-2.45-2.75-2.45-5.03Z"/>
      <path class="cls-3" d="M149.91,7.73c-.84-.73-1.78-1.08-2.81-1.08-1.19,0-2.46.81-3.09,1.71,0,0-.31.43-.48.75v-5.04h0V1.72l-4.03.76v.1c1.02,0,1.38.3,1.38.97v13.37h0c.06,0,.55,0,.77-.04,0,0,.01,0,.02,0,.81-.13,1.94-.62,1.84-2.27.18.32,1.43,2.3,3.57,2.3,1.15,0,4.18-.49,4.18-5.23,0-1.81-.53-3.23-1.37-3.95ZM146.13,16.08c-1.58,0-2.46-1.39-2.61-1.64v-5.16c.29-.51.59-.82.59-.82.55-.66,1.23-.96,2.07-.96,1.64,0,2.44,1.38,2.44,4.19,0,3.8-1.79,4.4-2.49,4.4Z"/>
      <path class="cls-3" d="M71.41,18.48c-3.46,0-5.85-2.05-6.66-6.08-.65-3.23-2.87-3.73-4.2-3.72,2.96-.44,4.68-1.95,4.68-4.33,0-2.92-2.22-4.17-7.17-4.24h0s-7.07,0-7.07,0v.15c1.38,0,1.84.44,1.84,1.26v13.98c0,.87-.61,1.29-1.84,1.29v.15h7.02v-.15c-1.23,0-1.84-.42-1.84-1.29v-6.63h1.62c.56,0,3.1.5,3.75,3.88.77,4,2.84,7.2,8.19,7.13,4.63-.06,6.9-2.91,6.9-2.91v-.11s-2.13,1.64-5.21,1.64ZM56.16,8.75V.25c4.67-.15,5.73,1.51,5.73,3.82,0,2.84-1.56,4.69-4.09,4.69h-1.64Z"/>
      <path class="cls-1" d="M82.41,28.03c.05-.28.08-.56.08-.85,0-.71-.28-1.34-.85-1.92-.95-.97-2.69-.91-2.69-.91,0,0-1.94.03-3.09,1.21-.77.79-1.2,1.77-1.2,3.07s.42,2.36,1.25,3.13c.83.77,1.81,1.17,2.93,1.17.6,0,1.24-.12,1.89-.36.65-.25,1.17-.61,1.56-1.11v-.1c-.73.58-1.51.87-2.38.87-1.5,0-2.49-1.36-2.49-3.66,0-.18,0-.36,0-.53h4.98ZM77.67,25.39c.14-.6.58-.81.91-.88,0,0,0,0,0,0,.01,0,.03,0,.05,0,0,0,0,0,0,0,.01,0,.02,0,.03,0,0,0,0,0,.01,0,.13-.02.36-.03.62.03,0,0,0,0,.01,0,.41.11,1.04.45,1.04,1.57,0,1.31-.55,1.79-1.88,1.83h-1.05c.02-1.22.13-2.06.24-2.53Z"/>
      <path class="cls-1" d="M60.33,29.48v3.45h-9.35s0-.1,0-.1c.82,0,1.23-.28,1.23-.84v-10.24c0-.56-.41-.84-1.23-.84v-.1h5.26s0,.1,0,.1c-.82,0-1.23.28-1.23.84v11.07s.54,0,.54,0c.12,0,.3,0,.38,0,.03,0,.05,0,.05,0,1.13-.09,2.02-.37,2.65-.83.67-.48,1.2-1.31,1.58-2.51h.13Z"/>
      <path class="cls-1" d="M72.75,20.76c-3.82.41-3.8,2.72-3.8,3.75h-.55l-.19.33h.74c0,.68,0,7.16,0,7.16,0,.57-.42.86-1.25.86h-.24v.1h5.58v-.1s-.05,0-.05,0h-.05c-.83,0-1.25-.29-1.25-.86v-7.16h1.95v-.33h-1.95c0-2.74.09-3.35,1.31-3.57,1.04-.18,1.54.59,1.63,1.2.08.57-.13,1.39-.13,1.39l.06.02s0,0,.96-2.24c-.75-.41-1.7-.67-2.78-.55Z"/>
      <g>
        <path class="cls-1" d="M66.93,32.83s-.05,0-.05,0h-.05c-.83,0-1.25-.29-1.25-.86v-7.63l-3.99.65v.1c.92,0,1.23.27,1.23.89v5.98c0,.57-.42.86-1.25.86,0,0-.11,0-.24,0v.11h5.59v-.1Z"/>
        <circle class="cls-1" cx="64.1" cy="21.98" r="1.5"/>
      </g>
      <path class="cls-3" d="M98.49,11.74c0,3.54-2.66,5.18-5.26,5.18h-.69s0-.14,0-.14h.68c1.35,0,2.6-.69,2.6-5.04,0-3.62-.8-4.97-2.53-4.97-.04,0-.07,0-.11,0-.02,0-.04,0-.05,0-2.39.16-2.31,4.61-2.31,4.61,0,0,0,7.16,0,7.16v4.45s-2.73.79-2.73.79v-4.44s0,0,0,0c-.02,0-.05.02-.08.02-.04.01-.08.02-.13.03-.57.16-2.01.45-3.69.46-1.89.01-4.09-.32-5.75-1.7-.42-.33-.76-.68-1.02-1.03,0,0,0-.01-.01-.02-.04-.05-.07-.1-.1-.15v-.11c.46.37,1.18.81,2.1,1.14,0,0,3.28,1.04,6.39.02.21-.08.43-.16.67-.26.49-.21,1.04-.48,1.64-.81v-5.21c0-5.26,5.2-5.09,5.2-5.09,1.74,0,5.2.94,5.2,5.09Z"/>
    </g>
  </g>
</svg>